<svg xmlns="http://www.w3.org/2000/svg" xmlns:xlink="http://www.w3.org/1999/xlink" version="1.1" width="1080" height="1080" viewBox="0 0 1080 1080" xml:space="preserve">
<desc>Created with Fabric.js 5.2.4</desc>
<defs>
</defs>
<rect x="0" y="0" width="100%" height="100%" fill="transparent"></rect>
<g transform="matrix(1 0 0 1 540 540)" id="2a70a0a5-523a-463c-a197-dc492f2f49ce"  >
<rect style="stroke: none; stroke-width: 1; stroke-dasharray: none; stroke-linecap: butt; stroke-dashoffset: 0; stroke-linejoin: miter; stroke-miterlimit: 4; fill: rgb(255,255,255); fill-rule: nonzero; opacity: 1; visibility: hidden;" vector-effect="non-scaling-stroke"  x="-540" y="-540" rx="0" ry="0" width="1080" height="1080" />
</g>
<g transform="matrix(1 0 0 1 540 540)" id="83d97fb4-7a64-4ec2-96e6-96161a34edf7"  >
</g>
<g transform="matrix(39.61 0 0 38.45 540 540)" id="ee8bff82-a44b-45e9-bcf3-d5c401e5ce81"  >
<path style="stroke: rgb(0,0,0); stroke-width: 0; stroke-dasharray: none; stroke-linecap: butt; stroke-dashoffset: 0; stroke-linejoin: miter; stroke-miterlimit: 4; fill: rgb(10,34,74); fill-rule: nonzero; opacity: 1;" vector-effect="non-scaling-stroke"  transform=" translate(-11.1, -8.49)" d="M 0 16.9813 L 0 0 L 3.1825 0 L 11.0437 5.51 L 11.1625 5.51 L 19.0238 0 L 22.2062 0 L 22.2062 16.9813 L 18.4062 16.9813 L 18.4062 4.75 L 13.015 8.36 L 13.015 16.9813 L 9.215 16.9813 L 9.215 8.36 L 3.8 4.75 L 3.8 16.9813 L 0 16.9813 Z" stroke-linecap="round" />
</g>
</svg>